<svg width="326" height="200" viewBox="0 0 326 200" fill="none" xmlns="http://www.w3.org/2000/svg">
<g filter="url(#filter0_d_278_4081)">
<path d="M37.717 118.5H89.5C92.8137 118.5 95.5 121.186 95.5 124.5C95.5 127.814 92.8137 130.5 89.5 130.5H44.651C40.5135 130.5 36.6679 128.369 34.475 124.86L34.325 124.62C32.6599 121.956 34.5753 118.5 37.717 118.5Z" fill="url(#paint0_linear_278_4081)"/>
<path opacity="0.5" d="M89.4937 130.5H44.6447C41.8148 130.5 39.1214 129.503 37 127.75H94.5381C93.4699 129.405 91.6097 130.5 89.4937 130.5Z" fill="#407AEA"/>
<path d="M65.9943 175.75H18.5C12.9772 175.75 8.5 171.273 8.5 165.75C8.5 160.227 12.9772 155.75 18.5 155.75H65.9943L103.219 79.2317C105.872 73.7797 107.25 67.7961 107.25 61.7331V34.5C107.25 28.9772 111.727 24.5 117.25 24.5H164.5V70.5L119.5 164.499H111.5V175.75H65.9943Z" fill="url(#paint1_linear_278_4081)"/>
<path opacity="0.5" d="M118.5 32.853V45.0861C118.5 47.8475 120.739 50.0861 123.5 50.0861H142C144.761 50.0861 147 47.8475 147 45.0861V32.853C147 29.3619 148.789 26.2887 151.5 24.5H123C120.289 26.2887 118.5 29.3619 118.5 32.853Z" fill="#BCBAF7"/>
<path opacity="0.5" d="M65.9944 175.75H18.5001C14.5959 175.75 11.2142 173.513 9.56738 170.25H111.5V175.75H65.9944Z" fill="#1513A0"/>
<path fill-rule="evenodd" clip-rule="evenodd" d="M164.75 24.5C170.273 24.5 174.75 28.9772 174.75 34.5V61.7331C174.75 70.8275 172.683 79.803 168.704 87.981L131.479 164.499C128.131 171.382 121.148 175.75 113.494 175.75H66C60.4772 175.75 56 171.273 56 165.75C56 160.227 60.4772 155.75 66 155.75H113.494L150.719 79.2317C153.372 73.7797 154.75 67.7961 154.75 61.7331V34.5C154.75 28.9772 159.227 24.5 164.75 24.5Z" fill="url(#paint2_linear_278_4081)"/>
<path d="M125.783 164.273C124.215 167.471 120.945 169.5 117.36 169.5H82.1833C79.5968 169.5 77.5 167.42 77.5 164.854C77.5 162.289 79.5968 160.209 82.1833 160.209H117.36L123.281 148.973C124.082 147.452 125.66 146.5 127.379 146.5C130.853 146.5 133.091 150.182 131.492 153.265L125.783 164.273Z" fill="url(#paint3_linear_278_4081)"/>
<path d="M87.717 118.5H139.5C142.814 118.5 145.5 121.186 145.5 124.5C145.5 127.814 142.814 130.5 139.5 130.5H94.651C90.5135 130.5 86.6679 128.369 84.475 124.86L84.325 124.62C82.6599 121.956 84.5753 118.5 87.717 118.5Z" fill="url(#paint4_linear_278_4081)"/>
<path opacity="0.5" d="M139.5 130.5H94.651C91.8211 130.5 89.1277 129.503 87.0063 127.75H144.544C143.476 129.405 141.616 130.5 139.5 130.5Z" fill="#407AEA"/>
<path d="M113.191 118.5H163.133C166.447 118.5 169.133 121.186 169.133 124.5C169.133 127.814 166.447 130.5 163.133 130.5H120.004C115.881 130.5 112.058 128.347 109.92 124.821L109.77 124.574C108.154 121.908 110.073 118.5 113.191 118.5Z" fill="url(#paint5_linear_278_4081)"/>
<path opacity="0.5" d="M163.308 130.5H119.808C117.063 130.5 114.45 129.503 112.393 127.75H168.2C167.164 129.405 165.36 130.5 163.308 130.5Z" fill="#407AEA"/>
<path d="M140.515 175.75H94.4492C89.0925 175.75 84.75 171.273 84.75 165.75C84.75 160.227 89.0925 155.75 94.4492 155.75H140.515L176.621 79.2317C179.193 73.7797 180.53 67.7961 180.53 61.7331V34.5C180.53 28.9772 184.873 24.5 190.229 24.5H236.058V70.5L192.412 164.499H184.652V175.75H140.515Z" fill="url(#paint6_linear_278_4081)"/>
<path opacity="0.5" d="M191.442 32.853V45.0861C191.442 47.8475 193.68 50.0861 196.442 50.0861H214.085C216.846 50.0861 219.085 47.8475 219.085 45.0861V32.853C219.085 29.3619 220.82 26.2887 223.449 24.5H195.807C193.177 26.2887 191.442 29.3619 191.442 32.853Z" fill="#BCBAF7"/>
<path opacity="0.5" d="M140.515 175.75H94.4492C90.6624 175.75 87.3824 173.513 85.7852 170.25H184.652V175.75H140.515Z" fill="#1513A0"/>
<path fill-rule="evenodd" clip-rule="evenodd" d="M236.301 24.5C241.657 24.5 246 28.9772 246 34.5V61.7331C246 70.8275 243.995 79.803 240.136 87.981L204.03 164.499C200.783 171.382 194.01 175.75 186.586 175.75H140.521C135.164 175.75 130.821 171.273 130.821 165.75C130.821 160.227 135.164 155.75 140.521 155.75H186.586L222.692 79.2317C225.265 73.7797 226.601 67.7961 226.601 61.7331V34.5C226.601 28.9772 230.944 24.5 236.301 24.5Z" fill="url(#paint7_linear_278_4081)"/>
<path d="M198.506 164.273C196.985 167.471 193.813 169.5 190.336 169.5H156.217C153.709 169.5 151.675 167.42 151.675 164.854C151.675 162.289 153.709 160.209 156.217 160.209H190.336L196.083 148.964C196.856 147.452 198.411 146.5 200.11 146.5C203.476 146.5 205.662 150.046 204.149 153.054L198.506 164.273Z" fill="url(#paint8_linear_278_4081)"/>
<path d="M169.892 118.5H234.384C237.697 118.5 240.384 121.186 240.384 124.5C240.384 127.814 237.697 130.5 234.384 130.5H176.822C172.627 130.5 168.736 128.309 166.561 124.721L166.471 124.574C164.855 121.908 166.775 118.5 169.892 118.5Z" fill="url(#paint9_linear_278_4081)"/>
<path opacity="0.5" d="M234.558 130.5H176.509C173.764 130.5 171.152 129.503 169.094 127.75H239.451C238.414 129.405 236.61 130.5 234.558 130.5Z" fill="#407AEA"/>
<path d="M211.765 175.75H165.699C160.343 175.75 156 171.273 156 165.75C156 160.227 160.343 155.75 165.699 155.75H211.765L247.871 79.2317C250.443 73.7797 251.78 67.7961 251.78 61.7331V34.5C251.78 28.9772 256.123 24.5 261.479 24.5H307.308V70.5L263.662 164.499H255.902V175.75H211.765Z" fill="url(#paint10_linear_278_4081)"/>
<path opacity="0.5" d="M262.692 32.853V45.0861C262.692 47.8475 264.93 50.0861 267.692 50.0861H285.335C288.096 50.0861 290.335 47.8475 290.335 45.0861V32.853C290.335 29.3619 292.07 26.2887 294.699 24.5H267.056C264.427 26.2887 262.692 29.3619 262.692 32.853Z" fill="#BCBAF7"/>
<path opacity="0.5" d="M211.765 175.75H165.699C161.912 175.75 158.632 173.513 157.035 170.25H255.902V175.75H211.765Z" fill="#1513A0"/>
<path fill-rule="evenodd" clip-rule="evenodd" d="M307.551 24.5C312.907 24.5 317.25 28.9772 317.25 34.5V61.7331C317.25 70.8275 315.245 79.803 311.386 87.981L275.28 164.499C272.033 171.382 265.26 175.75 257.836 175.75H211.771C206.414 175.75 202.071 171.273 202.071 165.75C202.071 160.227 206.414 155.75 211.771 155.75H257.836L293.942 79.2317C296.515 73.7797 297.851 67.7961 297.851 61.7331V34.5C297.851 28.9772 302.194 24.5 307.551 24.5Z" fill="url(#paint11_linear_278_4081)"/>
<path d="M269.756 164.273C268.235 167.471 265.063 169.5 261.586 169.5H227.467C224.959 169.5 222.925 167.42 222.925 164.854C222.925 162.289 224.959 160.209 227.467 160.209H261.586L267.333 148.964C268.106 147.452 269.661 146.5 271.36 146.5C274.726 146.5 276.912 150.046 275.399 153.054L269.756 164.273Z" fill="url(#paint12_linear_278_4081)"/>
<path d="M232.937 118.5H282.88C286.193 118.5 288.88 121.186 288.88 124.5C288.88 127.814 286.193 130.5 282.88 130.5H239.75C235.627 130.5 231.804 128.347 229.666 124.821L229.516 124.574C227.9 121.908 229.82 118.5 232.937 118.5Z" fill="url(#paint13_linear_278_4081)"/>
<path opacity="0.5" d="M283.06 130.5H239.56C236.815 130.5 234.203 129.503 232.145 127.75H287.953C286.917 129.405 285.113 130.5 283.06 130.5Z" fill="#407AEA"/>
</g>
<defs>
<filter id="filter0_d_278_4081" x="-5" y="0" width="336" height="216" filterUnits="userSpaceOnUse" color-interpolation-filters="sRGB">
<feFlood flood-opacity="0" result="BackgroundImageFix"/>
<feColorMatrix in="SourceAlpha" type="matrix" values="0 0 0 0 0 0 0 0 0 0 0 0 0 0 0 0 0 0 127 0" result="hardAlpha"/>
<feOffset dy="8"/>
<feGaussianBlur stdDeviation="4"/>
<feComposite in2="hardAlpha" operator="out"/>
<feColorMatrix type="matrix" values="0 0 0 0 0 0 0 0 0 0 0 0 0 0 0 0 0 0 0.25 0"/>
<feBlend mode="normal" in2="BackgroundImageFix" result="effect1_dropShadow_278_4081"/>
<feBlend mode="normal" in="SourceGraphic" in2="effect1_dropShadow_278_4081" result="shape"/>
</filter>
<linearGradient id="paint0_linear_278_4081" x1="63" y1="118.5" x2="63" y2="130.5" gradientUnits="userSpaceOnUse">
<stop stop-color="#04BBC7"/>
<stop offset="1" stop-color="#04BBC7"/>
</linearGradient>
<linearGradient id="paint1_linear_278_4081" x1="86.5" y1="24.5" x2="86.5" y2="175.75" gradientUnits="userSpaceOnUse">
<stop offset="0.0208333" stop-color="#04BBC7"/>
<stop offset="0.567708" stop-color="#04BBC7"/>
<stop offset="1" stop-color="#04BBC7"/>
</linearGradient>
<linearGradient id="paint2_linear_278_4081" x1="115.375" y1="24.5" x2="115.375" y2="175.75" gradientUnits="userSpaceOnUse">
<stop stop-color="#04BBC7"/>
<stop offset="0.520833" stop-color="#04BBC7"/>
<stop offset="1" stop-color="#04BBC7"/>
</linearGradient>
<linearGradient id="paint3_linear_278_4081" x1="130.75" y1="146.5" x2="76.75" y2="166" gradientUnits="userSpaceOnUse">
<stop stop-color="#04BBC7"/>
<stop offset="0.321516" stop-color="#04BBC7"/>
<stop offset="1" stop-color="#04BBC7"/>
</linearGradient>
<linearGradient id="paint4_linear_278_4081" x1="113" y1="118.5" x2="113" y2="130.5" gradientUnits="userSpaceOnUse">
<stop stop-color="#04BBC7"/>
<stop offset="1"/>
</linearGradient>
<linearGradient id="paint5_linear_278_4081" x1="137.611" y1="118.5" x2="137.611" y2="130.5" gradientUnits="userSpaceOnUse">
<stop stop-color="#04BBC7"/>
<stop offset="1" stop-color="#04BBC7"/>
</linearGradient>
<linearGradient id="paint6_linear_278_4081" x1="160.404" y1="24.5" x2="160.404" y2="175.75" gradientUnits="userSpaceOnUse">
<stop offset="0.0208333" stop-color="#04BBC7"/>
<stop offset="0.567708" stop-color="#04BBC7"/>
<stop offset="1" stop-color="#04BBC7"/>
</linearGradient>
<linearGradient id="paint7_linear_278_4081" x1="188.411" y1="24.5" x2="188.411" y2="175.75" gradientUnits="userSpaceOnUse">
<stop stop-color="#04BBC7"/>
<stop offset="0.520833" stop-color="#04BBC7"/>
<stop offset="1" stop-color="#04BBC7"/>
</linearGradient>
<linearGradient id="paint8_linear_278_4081" x1="203.323" y1="146.5" x2="150.587" y2="164.971" gradientUnits="userSpaceOnUse">
<stop stop-color="#04BBC7"/>
<stop offset="0.321516" stop-color="#04BBC7"/>
<stop offset="1" stop-color="#04BBC7"/>
</linearGradient>
<linearGradient id="paint9_linear_278_4081" x1="194.312" y1="118.5" x2="194.312" y2="130.5" gradientUnits="userSpaceOnUse">
<stop stop-color="#04BBC7"/>
<stop offset="1"/>
</linearGradient>
<linearGradient id="paint10_linear_278_4081" x1="231.654" y1="24.5" x2="231.654" y2="175.75" gradientUnits="userSpaceOnUse">
<stop offset="0.0208333" stop-color="#04BBC7"/>
<stop offset="0.567708" stop-color="#04BBC7"/>
<stop offset="1" stop-color="#04BBC7"/>
</linearGradient>
<linearGradient id="paint11_linear_278_4081" x1="259.661" y1="24.5" x2="259.661" y2="175.75" gradientUnits="userSpaceOnUse">
<stop stop-color="#04BBC7"/>
<stop offset="0.520833" stop-color="#04BBC7"/>
<stop offset="1" stop-color="#04BBC7"/>
</linearGradient>
<linearGradient id="paint12_linear_278_4081" x1="274.573" y1="146.5" x2="221.837" y2="164.971" gradientUnits="userSpaceOnUse">
<stop stop-color="#04BBC7"/>
<stop offset="0.321516" stop-color="#04BBC7"/>
<stop offset="1" stop-color="#04BBC7"/>
</linearGradient>
<linearGradient id="paint13_linear_278_4081" x1="257.357" y1="118.5" x2="257.357" y2="130.5" gradientUnits="userSpaceOnUse">
<stop stop-color="#04BBC7"/>
<stop offset="1"/>
</linearGradient>
</defs>
</svg>
